<svg width="18" height="20" viewBox="0 0 18 20" fill="none" xmlns="http://www.w3.org/2000/svg">
<path d="M1.16962 7.75363C1.96873 6.29441 3.06295 5.38331 4.42182 5.04569C6.01085 4.65085 7.58164 5.14593 8.54832 5.58058C8.49473 4.59936 8.57145 3.73143 8.77688 2.98065C8.37496 3.50604 7.53383 4.37475 6.26933 4.55057C6.11718 4.57171 5.96445 4.58229 5.81073 4.58229C4.62464 4.58229 3.39447 3.9526 2.14728 2.70541L1.73295 2.29111L2.14728 1.87682C3.55604 0.468061 4.94288 -0.152683 6.26933 0.0316928C8.06883 0.28185 9.01086 1.93529 9.05008 2.00553L9.1027 2.09982C9.28887 1.71252 9.52 1.36685 9.79688 1.06466C10.606 0.181342 11.496 0.0224349 11.5948 0.00727864L11.773 1.16552C11.749 1.16924 9.46567 1.57041 9.72528 5.62359C10.682 5.1798 12.3046 4.6378 13.9462 5.04573C15.3051 5.38335 16.3993 6.29445 17.1984 7.75367C17.9868 9.19325 18.1988 10.9654 17.8116 12.8784C17.4758 14.5372 16.7124 16.1882 15.662 17.5273C14.4141 19.118 12.9618 20.0001 11.6493 20C11.4161 20 11.1869 19.9721 10.9645 19.9153C10.7915 19.8854 9.96336 19.7278 9.18395 19.3377C8.40453 19.7278 7.5764 19.8854 7.40343 19.9153C7.18093 19.9721 6.95195 20 6.71863 20C5.4062 20 3.9537 19.1178 2.70592 17.5273C1.65549 16.1882 0.892084 14.5372 0.556341 12.8784C0.16923 10.9653 0.381262 9.19325 1.16962 7.75363Z" fill="#BDBDBD"/>
</svg>
