<svg width="25" height="25" viewBox="0 0 25 25" fill="none" xmlns="http://www.w3.org/2000/svg">
<path d="M20.4209 5.90039H15.9746V1.4541L20.4209 5.90039Z" stroke="#F41671" stroke-width="0.7"/>
<path d="M4.16992 0.349609H13.1953V7.29492C13.1953 8.06439 13.8155 8.68457 14.585 8.68457H14.9346V8.67969H21.5205V23.9551C21.5205 24.338 21.213 24.6455 20.8301 24.6455H4.16504C3.78598 24.6455 3.47461 24.3369 3.47461 23.9551V1.04004C3.47461 0.659299 3.78491 0.349609 4.16992 0.349609ZM8.33496 18.7617C7.57144 18.7617 6.94531 19.3808 6.94531 20.1514C6.94531 20.9208 7.56549 21.541 8.33496 21.541H16.665C17.4324 21.541 18.0596 20.923 18.0596 20.1514C18.0596 19.3819 17.4394 18.7617 16.6699 18.7617H8.33496ZM8.33496 13.5518C7.57144 13.5518 6.94531 14.1709 6.94531 14.9414C6.94531 15.7109 7.56549 16.3311 8.33496 16.3311H16.665C17.4324 16.3311 18.0596 15.713 18.0596 14.9414C18.0596 14.1719 17.4394 13.5518 16.6699 13.5518H8.33496ZM8.125 1.76953C7.74517 1.76953 7.40101 1.89684 7.15137 2.14648C6.96211 2.33574 6.8426 2.57942 6.7959 2.85156C5.67306 3.22331 4.90918 4.1122 4.90918 5.27344C4.90918 6.01218 5.125 6.63438 5.43652 7.05176L5.5752 7.21777C5.73362 7.3858 5.92416 7.51895 6.14062 7.63379C5.7708 7.63806 5.46081 7.78529 5.19727 8.04883C4.93051 8.31558 4.78223 8.6356 4.78223 8.99902C4.78223 9.37753 4.91871 9.71127 5.16406 9.9834L5.27539 10.0967L5.28125 10.1016C5.68987 10.4615 6.1968 10.7141 6.7998 10.8662C6.84901 11.1285 6.96762 11.3634 7.15234 11.5469C7.40172 11.7945 7.74523 11.9219 8.125 11.9219C8.50483 11.9219 8.84899 11.7946 9.09863 11.5449C9.28716 11.3564 9.40507 11.1136 9.45215 10.8428C10.644 10.4679 11.458 9.55744 11.458 8.27637C11.458 7.44036 11.1899 6.76844 10.8047 6.36621H10.8057C10.6363 6.17988 10.4046 6.03598 10.1494 5.9209C10.3309 5.86822 10.4959 5.77483 10.6416 5.64062L10.7373 5.54297L10.7402 5.54004C10.9726 5.27784 11.1211 4.96875 11.1211 4.61426C11.1211 4.31141 11.0032 4.03884 10.8125 3.78418L10.7266 3.67578L10.7197 3.66797L10.5703 3.51367C10.2626 3.21986 9.88975 3.00159 9.45312 2.85352C9.40664 2.58067 9.28829 2.33615 9.09863 2.14648C8.84899 1.89684 8.50483 1.76953 8.125 1.76953ZM7.10547 7.98535C7.22108 8.01493 7.35156 8.04065 7.49219 8.06445L7.94043 8.13379L7.94531 8.13477C8.20109 8.17029 8.34838 8.19641 8.49512 8.23633L8.64648 8.28223L8.65234 8.28418C8.68737 8.2949 8.7142 8.30629 8.73535 8.31543C8.72243 8.33051 8.70186 8.34963 8.66699 8.37012C8.57131 8.42622 8.40693 8.47363 8.18359 8.47363C7.85349 8.47363 7.54975 8.3781 7.2627 8.17676L7.14062 8.08398C7.09137 8.03629 7.04129 7.99123 6.98926 7.9502C7.0291 7.96144 7.06716 7.97555 7.10547 7.98535ZM8.03711 5.17871C8.24105 5.17871 8.43641 5.24662 8.64258 5.42383L8.73242 5.50586C8.73644 5.51031 8.74106 5.51417 8.74512 5.51855L8.36328 5.46387C8.02482 5.41692 7.80985 5.37134 7.68262 5.31445C7.65537 5.30227 7.63906 5.28982 7.62793 5.28223C7.63536 5.27612 7.64434 5.26586 7.66016 5.25684C7.73131 5.21626 7.85993 5.17871 8.03711 5.17871Z" stroke="#F41671" stroke-width="0.7"/>
</svg>
