<svg width="25" height="25" viewBox="0 0 25 25" fill="none" xmlns="http://www.w3.org/2000/svg">
<path d="M20.4209 5.90039H15.9746V1.4541L20.4209 5.90039Z" stroke="#F41671" stroke-width="0.7"/>
<path d="M4.16699 0.349609H13.1914V7.29199C13.1916 8.06129 13.8152 8.68341 14.583 8.68359H21.5254V23.958C21.5254 24.3405 21.2149 24.6504 20.833 24.6504H4.16699C3.78508 24.6504 3.47461 24.3406 3.47461 23.958V1.04199C3.47461 0.659501 3.78501 0.349609 4.16699 0.349609ZM8.33301 16.3164C7.5652 16.3166 6.94159 16.9387 6.94141 17.708C6.94141 18.4774 7.56509 19.0994 8.33301 19.0996H16.667C17.4349 19.0994 18.0586 18.4775 18.0586 17.708C18.0584 16.9387 17.4348 16.3166 16.667 16.3164H8.33301ZM8.33301 11.1084C7.56509 11.1086 6.94141 11.7306 6.94141 12.5C6.94141 13.2694 7.56509 13.8914 8.33301 13.8916H16.667C17.4349 13.8914 18.0586 13.2695 18.0586 12.5C18.0586 11.7305 17.4349 11.1086 16.667 11.1084H8.33301ZM8.33301 5.90039C7.56512 5.90058 6.94134 6.52251 6.94141 7.29199L6.94922 7.43457C7.02076 8.13665 7.61326 8.68342 8.33301 8.68359H10.417C11.1848 8.68344 11.8084 8.06129 11.8086 7.29199C11.8086 6.52254 11.1849 5.90055 10.417 5.90039H8.33301Z" stroke="#F41671" stroke-width="0.7"/>
</svg>
