<svg width="20" height="30" viewBox="0 0 20 30" fill="none" xmlns="http://www.w3.org/2000/svg">
<path d="M5.18866 0.14146C3.19654 0.670406 1.9052 2.80988 2.40914 4.75988C2.59811 5.49409 2.88945 5.99146 3.46425 6.57567C4.6926 7.79935 6.36189 8.06777 7.9052 7.2862C8.41701 7.02567 9.29103 6.14935 9.55087 5.6362C10.3383 4.08093 10.0706 2.42304 8.82646 1.17567C7.80284 0.149354 6.543 -0.213804 5.18866 0.14146ZM7.26741 1.36514C7.82646 1.61777 8.37764 2.17041 8.64536 2.74672C8.9367 3.40199 8.94457 4.34935 8.64536 4.98883C8.37764 5.56514 7.83434 6.10988 7.25953 6.3783C6.62174 6.6783 5.67685 6.67041 5.02331 6.3783C3.81858 5.82567 3.14929 4.42041 3.49575 3.18883C3.96819 1.53093 5.71622 0.686196 7.26741 1.36514Z" fill="#F41671"/>
<path d="M14.5829 0.181277L14.4097 0.362857V14.9286V29.5023L14.5908 29.6681C14.7719 29.8418 14.8191 29.8418 17.1735 29.8418H19.5829L19.7483 29.6602C19.9766 29.4234 19.9687 29.1707 19.7246 28.9339L19.5357 28.7365H17.5199H15.512V28.1128V27.4892L16.4648 27.4576C17.3546 27.4339 17.4254 27.4181 17.5672 27.2444C17.764 27.0076 17.7561 26.7234 17.5593 26.526C17.4175 26.3839 17.2994 26.3681 16.4569 26.3681H15.512V25.6971V25.026H16.4569C17.2994 25.026 17.4175 25.0102 17.5593 24.8681C17.7561 24.6707 17.764 24.3865 17.5672 24.1497C17.4254 23.976 17.3546 23.9602 16.4648 23.9365L15.512 23.905V23.2813V22.6576H17.5435C19.5672 22.6576 19.5829 22.6576 19.7483 22.476C19.9766 22.2392 19.9687 21.9865 19.7246 21.7497L19.5357 21.5523H17.5199H15.512V20.9286V20.305L16.4648 20.2734C17.3546 20.2497 17.4254 20.2339 17.5672 20.0602C17.764 19.8234 17.7561 19.5392 17.5593 19.3418C17.4175 19.1997 17.2994 19.1839 16.4569 19.1839H15.512V18.5129V17.8418H16.4569C17.2994 17.8418 17.4175 17.826 17.5593 17.6839C17.7561 17.4865 17.764 17.2023 17.5672 16.9655C17.4254 16.7918 17.3546 16.776 16.4648 16.7523L15.512 16.7207V16.0971V15.4734H17.5435C19.5672 15.4734 19.5829 15.4734 19.7483 15.2918C19.9766 15.055 19.9687 14.8023 19.7246 14.5655L19.5357 14.3681H17.5199H15.512V13.7444V13.1207L16.4648 13.0892C17.3546 13.0655 17.4254 13.0497 17.5672 12.876C17.764 12.6392 17.7561 12.355 17.5593 12.1576C17.4175 12.0155 17.2994 11.9997 16.4569 11.9997H15.512V11.3286V10.6576H16.4569C17.2994 10.6576 17.4175 10.6418 17.5593 10.4997C17.7561 10.3023 17.764 10.0181 17.5672 9.78127C17.4254 9.60759 17.3546 9.5918 16.4648 9.56812L15.512 9.53654V8.91285V8.28917H17.5435C19.5672 8.28917 19.5829 8.28917 19.7483 8.10759C19.9766 7.87075 19.9687 7.61812 19.7246 7.38128L19.5357 7.18391H17.5199H15.512V6.56022V5.93654L16.4648 5.90496C17.3546 5.88128 17.4254 5.86549 17.5672 5.6918C17.764 5.45496 17.7561 5.17075 17.5593 4.97338C17.4175 4.83128 17.2994 4.81549 16.4569 4.81549H15.512V4.14443V3.47338H16.4569C17.2994 3.47338 17.4175 3.45759 17.5593 3.31549C17.7561 3.11812 17.764 2.83391 17.5672 2.59707C17.4254 2.42338 17.3546 2.40759 16.4648 2.38391L15.512 2.35233V1.72865V1.10496H17.5435C19.5672 1.10496 19.5829 1.10496 19.7483 0.923382C19.9766 0.686541 19.9687 0.433908 19.7246 0.197067L19.5357 -0.000302569H17.142H14.7483L14.5829 0.181277Z" fill="#F41671"/>
<path d="M3.26765 8.88951C1.89757 9.2053 0.771587 10.1606 0.291273 11.4237C0.125919 11.8658 0.118045 11.9842 0.0944228 15.6632L0.0708008 19.4448L0.267651 19.8474C0.582611 20.479 1.24403 20.8264 1.94481 20.7316L2.2834 20.6842V24.3C2.2834 28.5079 2.29127 28.5395 2.90544 29.1395C3.34639 29.5658 3.85032 29.7632 4.50387 29.7632C5.01568 29.7632 5.66922 29.5421 5.95268 29.2816L6.13379 29.1158L6.39363 29.3211C7.55111 30.2053 9.34638 29.7395 9.84244 28.4369C9.99205 28.05 9.99992 27.8132 9.99992 24.3711V20.7237H10.5354C11.2755 20.7237 11.748 20.4474 12.0157 19.8553L12.2125 19.429L12.1889 15.6553C12.1653 12.0158 12.1574 11.8658 11.992 11.4316C11.5905 10.3658 10.6771 9.45003 9.64559 9.06319C9.1889 8.8974 9.05504 8.88951 6.29914 8.87372C4.71647 8.86582 3.35426 8.87372 3.26765 8.88951ZM9.54323 10.2474C10.1495 10.5474 10.5669 10.9737 10.8582 11.5974L11.0629 12.0395L11.0865 15.6711C11.1102 19.7685 11.1338 19.6185 10.5511 19.6185C9.98418 19.6185 9.99992 19.7369 9.99992 15.9316V12.5448L9.80307 12.3553C9.70071 12.2448 9.53536 12.1579 9.44874 12.1579C9.35426 12.1579 9.19678 12.2448 9.09441 12.3553L8.89756 12.5448V20.2106C8.89756 28.6737 8.92906 28.1842 8.4015 28.5C8.07079 28.7053 7.51961 28.7053 7.1889 28.5C6.67709 28.1921 6.69284 28.3264 6.69284 23.5421C6.69284 19.2711 6.69284 19.2 6.52749 18.9948C6.32276 18.7342 6.0393 18.7264 5.78733 18.9869L5.59048 19.1764V23.5421C5.59048 26.8737 5.56686 27.9553 5.48812 28.1053C5.22828 28.6185 4.4015 28.8237 3.88182 28.5C3.35426 28.1842 3.38576 28.6737 3.38576 20.2106V12.5448L3.18891 12.3553C3.08655 12.2448 2.92119 12.1579 2.83458 12.1579C2.74796 12.1579 2.58261 12.2448 2.48025 12.3553L2.2834 12.5448V15.9316C2.2834 19.7369 2.29914 19.6185 1.73222 19.6185C1.14954 19.6185 1.17316 19.7685 1.19678 15.6711L1.22041 12.0395L1.433 11.5895C1.78733 10.8237 2.51174 10.2316 3.34639 10.0185C3.48025 9.98688 4.80308 9.96319 6.29914 9.97109L9.01567 9.98688L9.54323 10.2474Z" fill="#F41671"/>
</svg>
