<svg width="25" height="26" viewBox="0 0 25 26" fill="none" xmlns="http://www.w3.org/2000/svg">
<path d="M22.1152 3.50684L22.1504 3.77246L22.416 3.80762L24.2529 4.05176L21.5176 6.78613L20.6172 6.66602L20.4463 6.64355L20.3232 6.76562L13.6895 13.3994L13.5449 13.5449L13.6006 13.7422C13.648 13.9105 13.6738 14.093 13.6738 14.2803C13.6738 15.4004 12.7627 16.3124 11.6426 16.3125C10.5224 16.3125 9.61035 15.4005 9.61035 14.2803C9.61058 13.1603 10.5225 12.249 11.6426 12.249C11.8289 12.249 12.0075 12.2748 12.1836 12.3232L12.3799 12.377L19.1572 5.59961L19.2803 5.47754L19.2568 5.30566L19.1367 4.40332L21.8701 1.66895L22.1152 3.50684Z" stroke="#F41671" stroke-width="0.7"/>
<path d="M7.00928 9.64746C8.68255 7.96973 11.0463 7.39192 13.1938 7.91504L11.7573 9.35156C10.5415 9.32193 9.31863 9.73945 8.35303 10.6055L8.15479 10.793C6.28943 12.6583 6.23112 15.6493 7.97998 17.585L8.15479 17.7686C10.0202 19.634 13.0111 19.6923 14.9468 17.9434L15.1304 17.7686C16.124 16.7749 16.6028 15.4611 16.5708 14.1602L18.0073 12.7236C18.5136 14.8022 17.9925 17.0758 16.4429 18.7412L16.2759 18.9141C13.799 21.3909 9.8239 21.4686 7.25342 19.1465L7.00928 18.9141C4.53252 16.4372 4.45485 12.4621 6.77686 9.8916L7.00928 9.64746Z" stroke="#F41671" stroke-width="0.7"/>
<path d="M3.65674 6.29492C7.22524 2.72642 12.5955 2.04687 16.8491 4.25879L15.4751 5.63379C12.1155 4.14793 8.06943 4.70733 5.23193 7.32715L4.95557 7.59375C1.37722 11.1721 1.26497 16.9023 4.61963 20.6152L4.95557 20.9678C8.6494 24.6616 14.6357 24.6616 18.3296 20.9678C21.1763 18.121 21.8303 13.9176 20.2896 10.4463L21.6587 9.06934C23.7995 13.1859 23.2328 18.3481 19.9595 21.9111L19.6235 22.2617C15.3544 26.5357 8.51229 26.6695 4.07764 22.6621L3.65674 22.2617C-0.6171 17.9927 -0.751619 11.1505 3.25537 6.71582L3.65674 6.29492Z" stroke="#F41671" stroke-width="0.7"/>
</svg>
