<svg width="25" height="29" viewBox="0 0 25 29" fill="none" xmlns="http://www.w3.org/2000/svg">
<path d="M19.8259 14.5632H21.7637C22.2018 14.5632 22.5583 14.2068 22.5583 13.7687V11.8311C22.5583 11.3931 22.2018 11.0367 21.7637 11.0367H19.8259C19.3878 11.0367 19.0314 11.3931 19.0314 11.8311V13.7687C19.0314 14.2068 19.3878 14.5632 19.8259 14.5632ZM19.8453 11.8505H21.7444V13.7493H19.8453V11.8505ZM19.8259 19.7172H21.7637C22.2018 19.7172 22.5583 19.3608 22.5583 18.9228V16.9852C22.5583 16.5471 22.2018 16.1908 21.7637 16.1908H19.8259C19.3878 16.1908 19.0314 16.5471 19.0314 16.9852V18.9228C19.0314 19.3608 19.3878 19.7172 19.8259 19.7172ZM19.8453 17.0046H21.7444V18.9034H19.8453V17.0046ZM14.296 14.5632H16.2338C16.6719 14.5632 17.0283 14.2068 17.0283 13.7687V11.8311C17.0283 11.3931 16.6719 11.0367 16.2338 11.0367H14.296C13.8579 11.0367 13.5015 11.3931 13.5015 11.8311V13.7687C13.5015 14.2068 13.8579 14.5632 14.296 14.5632ZM14.3154 11.8505H16.2144V13.7493H14.3154V11.8505ZM5.17398 21.1032H3.23615C2.79806 21.1032 2.44163 21.4596 2.44163 21.8976V23.8352C2.44163 24.2733 2.79806 24.6297 3.23615 24.6297H5.17398C5.61207 24.6297 5.9685 24.2733 5.9685 23.8352V21.8976C5.9685 21.4596 5.61207 21.1032 5.17398 21.1032ZM5.15461 23.8159H3.25552V21.917H5.15461V23.8159ZM5.17398 11.0367H3.23615C2.79806 11.0367 2.44163 11.3931 2.44163 11.8311V13.7687C2.44163 14.2068 2.79806 14.5632 3.23615 14.5632H5.17398C5.61207 14.5632 5.9685 14.2068 5.9685 13.7687V11.8311C5.9685 11.393 5.61207 11.0367 5.17398 11.0367ZM5.15461 13.7493H3.25552V11.8505H5.15461V13.7493ZM14.296 19.5964H16.2338C16.6719 19.5964 17.0283 19.24 17.0283 18.802V16.8644C17.0283 16.4263 16.6719 16.0699 16.2338 16.0699H14.296C13.8579 16.0699 13.5015 16.4263 13.5015 16.8644V18.802C13.5015 19.24 13.8579 19.5964 14.296 19.5964ZM14.3154 16.8837H16.2144V18.7826H14.3154V16.8837ZM22.9624 2.78038H21.2226V2.15826C21.2226 1.47597 20.6674 0.920898 19.9851 0.920898H19.7982C19.1159 0.920898 18.5607 1.47597 18.5607 2.15826V2.78038H6.43915V2.15826C6.43915 1.47597 5.88402 0.920898 5.20165 0.920898H5.01478C4.33241 0.920898 3.77728 1.47597 3.77728 2.15826V2.78038H2.03745C0.914003 2.78038 0 3.69428 0 4.8176V26.6642C0 27.786 0.912755 28.6987 2.03473 28.6987H22.9653C24.0872 28.6987 25 27.786 25 26.6642V4.8176C24.9999 3.69428 24.0859 2.78038 22.9624 2.78038ZM19.3746 2.15826C19.3746 1.9247 19.5647 1.7347 19.7982 1.7347H19.9851C20.2187 1.7347 20.4087 1.9247 20.4087 2.15826V2.78038H19.3746V2.15826ZM4.59123 2.15826C4.59123 1.9247 4.78125 1.7347 5.01483 1.7347H5.2017C5.43529 1.7347 5.62531 1.9247 5.62531 2.15826V2.78038H4.59128V2.15826H4.59123ZM24.1861 26.6642C24.1861 27.3373 23.6384 27.8849 22.9652 27.8849H2.03468C1.36148 27.8849 0.81384 27.3373 0.81384 26.6642V26.6616C1.15481 26.9185 1.57863 27.0711 2.03745 27.0711H18.5369C19.0811 27.0711 19.5928 26.8592 19.9776 26.4743L24.1861 22.2663V26.6642ZM19.5623 25.7387C19.5942 25.607 19.6116 25.4697 19.6116 25.3283V22.6122C19.6116 22.1 20.0284 21.6833 20.5406 21.6833H23.257C23.3984 21.6833 23.5357 21.666 23.6674 21.6341L19.5623 25.7387ZM24.1861 8.59527H6.8461C6.62135 8.59527 6.43915 8.77745 6.43915 9.00217C6.43915 9.22689 6.62135 9.40907 6.8461 9.40907H24.1861V19.9406C24.1861 20.4529 23.7693 20.8696 23.257 20.8696H20.5406C19.5796 20.8696 18.7977 21.6514 18.7977 22.6123V25.3284C18.7977 25.8406 18.3809 26.2573 17.8687 26.2573H2.03745C1.36278 26.2573 0.813894 25.7085 0.813894 25.0339V9.40907H5.21831C5.44305 9.40907 5.62526 9.22689 5.62526 9.00217C5.62526 8.77745 5.44305 8.59527 5.21831 8.59527H0.81384V4.8176C0.81384 4.14301 1.36273 3.59418 2.03739 3.59418H3.77728V4.79058C3.77728 5.47287 4.33241 6.02794 5.01478 6.02794C5.23952 6.02794 5.42173 5.84576 5.42173 5.62104C5.42173 5.39632 5.23952 5.21414 5.01478 5.21414C4.78119 5.21414 4.59118 5.02414 4.59118 4.79058V3.59418H18.5607V4.79058C18.5607 5.47287 19.1159 6.02794 19.7982 6.02794C20.023 6.02794 20.2052 5.84576 20.2052 5.62104C20.2052 5.39632 20.023 5.21414 19.7982 5.21414C19.5647 5.21414 19.3746 5.02414 19.3746 4.79058V3.59418H22.9625C23.6372 3.59418 24.1861 4.14301 24.1861 4.8176V8.59527ZM5.17398 16.0699H3.23615C2.79806 16.0699 2.44163 16.4263 2.44163 16.8644V18.802C2.44163 19.24 2.79806 19.5964 3.23615 19.5964H5.17398C5.61207 19.5964 5.9685 19.24 5.9685 18.802V16.8644C5.9685 16.4263 5.61207 16.0699 5.17398 16.0699ZM5.15461 18.7826H3.25552V16.8837H5.15461V18.7826ZM8.76607 14.5632H10.7039C11.142 14.5632 11.4984 14.2068 11.4984 13.7687V11.8311C11.4984 11.3931 11.142 11.0367 10.7039 11.0367H8.76607C8.32798 11.0367 7.97155 11.3931 7.97155 11.8311V13.7687C7.97155 14.2068 8.32798 14.5632 8.76607 14.5632ZM8.78544 11.8505H10.6845V13.7493H8.78544V11.8505ZM14.3149 23.8159C14.3048 23.6001 14.1266 23.4283 13.9084 23.4283C13.6836 23.4283 13.5014 23.6105 13.5014 23.8352C13.5014 24.2733 13.8578 24.6297 14.2959 24.6297H16.2338C16.6719 24.6297 17.0283 24.2733 17.0283 23.8352V21.8976C17.0283 21.4596 16.6719 21.1032 16.2338 21.1032H14.2959C13.8578 21.1032 13.5014 21.4596 13.5014 21.8976V22.4564C13.5014 22.6812 13.6836 22.8633 13.9084 22.8633C14.1331 22.8633 14.3153 22.6812 14.3153 22.4564V21.917H16.2144V23.8159H14.3149ZM8.76607 19.5964H10.7039C11.142 19.5964 11.4984 19.24 11.4984 18.802V16.8644C11.4984 16.4263 11.142 16.0699 10.7039 16.0699H8.76607C8.32798 16.0699 7.97155 16.4263 7.97155 16.8644V18.802C7.97155 19.24 8.32798 19.5964 8.76607 19.5964ZM8.78544 16.8837H10.6845V18.7826H8.78544V16.8837ZM8.76607 24.6297H10.7039C11.142 24.6297 11.4984 24.2733 11.4984 23.8352V21.8976C11.4984 21.4596 11.142 21.1032 10.7039 21.1032H8.76607C8.32798 21.1032 7.97155 21.4596 7.97155 21.8976V23.8352C7.97155 24.2733 8.32798 24.6297 8.76607 24.6297ZM8.78544 21.917H10.6845V23.8159H8.78544V21.917Z" fill="#F41671"/>
</svg>
