<svg width="26" height="20" viewBox="0 0 26 20" fill="none" xmlns="http://www.w3.org/2000/svg">
<path d="M1.81641 0.349609V18.2451H25.6504V19.6504H1.08301C0.934871 19.6503 0.792511 19.6068 0.672852 19.5293L0.561523 19.4404C0.425061 19.3078 0.349609 19.1303 0.349609 18.9473V0.349609H1.81641Z" stroke="#F41671" stroke-width="0.7"/>
<path d="M5.4165 8.77051H8.6665C8.81485 8.77051 8.95784 8.81395 9.07764 8.8916L9.18896 8.98047C9.32535 9.11305 9.3999 9.29064 9.3999 9.47363V16.4922H4.68311V9.47363L4.69775 9.33789C4.71602 9.24907 4.75191 9.16413 4.8042 9.08789L4.89502 8.98047C5.03175 8.84764 5.21896 8.77059 5.4165 8.77051Z" stroke="#F41671" stroke-width="0.7"/>
<path d="M12.9995 4.56055H16.2495C16.3979 4.56055 16.5408 4.60399 16.6606 4.68164L16.772 4.77051C16.9083 4.90309 16.9829 5.08068 16.9829 5.26367V16.4922H12.2661V5.26367C12.2661 5.12648 12.3087 4.99237 12.3872 4.87793L12.478 4.77051C12.6148 4.63768 12.802 4.56063 12.9995 4.56055Z" stroke="#F41671" stroke-width="0.7"/>
<path d="M20.583 0.349609H23.833C23.9814 0.349609 24.1243 0.393051 24.2441 0.470703L24.3555 0.55957C24.4918 0.692152 24.5664 0.869742 24.5664 1.05273V16.4922H19.8496V1.05273C19.8496 0.915538 19.8922 0.781428 19.9707 0.666992L20.0615 0.55957C20.1982 0.42674 20.3855 0.349692 20.583 0.349609Z" stroke="#F41671" stroke-width="0.7"/>
</svg>
