<svg width="49" height="49" viewBox="0 0 49 49" fill="none" xmlns="http://www.w3.org/2000/svg">
<circle cx="24.5" cy="24.5" r="24.5" fill="#1C1C1C"/>
<path fill-rule="evenodd" clip-rule="evenodd" d="M19.5 13.6875C19.5 13.5052 19.4276 13.3303 19.2986 13.2014C19.1697 13.0724 18.9948 13 18.8125 13C18.6302 13 18.4553 13.0724 18.3264 13.2014C18.1974 13.3303 18.125 13.5052 18.125 13.6875V14.375H16.75C16.0207 14.375 15.3212 14.6647 14.8055 15.1805C14.2897 15.6962 14 16.3957 14 17.125V18.5H36V17.125C36 16.3957 35.7103 15.6962 35.1945 15.1805C34.6788 14.6647 33.9793 14.375 33.25 14.375H31.875V13.6875C31.875 13.5052 31.8026 13.3303 31.6736 13.2014C31.5447 13.0724 31.3698 13 31.1875 13C31.0052 13 30.8303 13.0724 30.7014 13.2014C30.5724 13.3303 30.5 13.5052 30.5 13.6875V14.375H19.5V13.6875ZM14 19.875H36V22.625H27.75C27.3853 22.625 27.0356 22.7699 26.7777 23.0277C26.5199 23.2856 26.375 23.6353 26.375 24C26.375 24.3647 26.5199 24.7144 26.7777 24.9723C27.0356 25.2301 27.3853 25.375 27.75 25.375H36V32.25C36 32.9793 35.7103 33.6788 35.1945 34.1945C34.6788 34.7103 33.9793 35 33.25 35H16.75C16.0207 35 15.3212 34.7103 14.8055 34.1945C14.2897 33.6788 14 32.9793 14 32.25V29.5H20.875C21.2397 29.5 21.5894 29.3551 21.8473 29.0973C22.1051 28.8394 22.25 28.4897 22.25 28.125C22.25 27.7603 22.1051 27.4106 21.8473 27.1527C21.5894 26.8949 21.2397 26.75 20.875 26.75H14V19.875Z" fill="#F41671"/>
</svg>
