<svg width="25" height="26" viewBox="0 0 25 26" fill="none" xmlns="http://www.w3.org/2000/svg">
<path d="M4.6875 1.4209H20.3125C22.6258 1.4209 24.5 3.29512 24.5 5.6084V21.2334C24.5 23.5467 22.6258 25.4209 20.3125 25.4209H4.6875C2.37422 25.4209 0.5 23.5467 0.5 21.2334V5.6084C0.5 3.29512 2.37422 1.4209 4.6875 1.4209ZM12.5 3.30566C9.49832 3.30566 7.24005 4.30745 5.73242 5.3125C4.97957 5.8144 4.4131 6.31737 4.0332 6.69727C3.84322 6.88726 3.6993 7.04711 3.60156 7.16113C3.55274 7.2181 3.51515 7.26353 3.48926 7.2959C3.4763 7.3121 3.46621 7.32563 3.45898 7.33496C3.45551 7.33945 3.45232 7.34292 3.4502 7.3457C3.44917 7.34705 3.44895 7.34868 3.44824 7.34961L3.44629 7.35156L3.21387 7.66113L3.45605 7.96387L7.30176 12.7715L7.45215 12.959H17.5479L17.6982 12.7715L21.5439 7.96387L21.7861 7.66113L21.5537 7.35156L21.5518 7.34961C21.5511 7.34868 21.5508 7.34705 21.5498 7.3457C21.5477 7.34292 21.5445 7.33945 21.541 7.33496C21.5338 7.32563 21.5237 7.3121 21.5107 7.2959C21.4848 7.26353 21.4473 7.2181 21.3984 7.16113C21.3007 7.04711 21.1568 6.88726 20.9668 6.69727C20.5869 6.31737 20.0204 5.8144 19.2676 5.3125C17.76 4.30745 15.5017 3.30566 12.5 3.30566Z" stroke="#F41671"/>
<path d="M14.6138 10.998H13.4487L15.228 8.30664L14.6138 10.998Z" stroke="#F41671"/>
</svg>
