<svg width="65" height="65" viewBox="0 0 65 65" fill="none" xmlns="http://www.w3.org/2000/svg">
<g clip-path="url(#clip0_1_491)">
<path d="M65 32.5C65 50.433 50.433 65 32.5 65C14.567 65 0 50.4911 0 32.5C0 14.567 14.567 0 32.5 0C50.4911 0 65 14.567 65 32.5Z" fill="#9C9C9C"/>
<path d="M38.0712 19.5004C39.406 17.8754 40.2765 15.612 40.0444 13.3486C38.1292 13.4067 35.8658 14.6254 34.473 16.2504C33.2542 17.7013 32.2096 20.0227 32.4417 22.2281C34.589 22.4022 36.7364 21.1254 38.0712 19.5004Z" fill="white"/>
<path d="M42.8303 33.8357C42.8303 32.2687 43.1785 30.992 43.7588 29.9473C44.9196 27.6839 46.8347 26.5812 46.9508 26.4652C44.7454 23.1571 41.2633 22.6929 40.0446 22.6348C37.0847 22.3446 34.299 24.3759 32.7901 24.3759C31.2812 24.3759 28.9597 22.6348 26.5222 22.6929C23.3303 22.7509 20.3704 24.608 18.6874 27.5098C18.1651 28.4384 17.8169 29.367 17.5267 30.4116C16.1338 36.0411 18.3392 42.9473 21.0669 47.0098C22.6338 49.3312 24.549 52.0009 27.0446 51.8848C29.424 51.7688 30.3526 50.3179 33.2544 50.3179C36.1562 50.3179 36.9687 51.8848 39.5222 51.8268C42.0758 51.7688 43.7588 49.4473 45.3258 47.0679C47.1249 44.3402 47.8794 41.7286 47.9374 41.6125C47.8794 41.5545 42.8883 39.6393 42.8303 33.8357Z" fill="white"/>
</g>
<defs>
<clipPath id="clip0_1_491">
<rect width="65" height="65" fill="white"/>
</clipPath>
</defs>
</svg>
