<svg width="65" height="65" viewBox="0 0 65 65" fill="none" xmlns="http://www.w3.org/2000/svg">
<g clip-path="url(#clip0_1_481)">
<path d="M32.9676 64.9973C50.915 64.739 65.2549 49.9802 64.9965 32.0328C64.7381 14.0853 49.9794 -0.254521 32.0319 0.00385298C14.0844 0.262227 -0.255391 15.021 0.00298302 32.9684C0.261357 50.9159 15.0201 65.2557 32.9676 64.9973Z" fill="#6081C4"/>
<path d="M35.4016 24.8977V21.8218C35.4016 20.3129 36.3883 19.9647 37.0847 19.9647C37.7811 19.9647 41.3793 19.9647 41.3793 19.9647V13.3486H35.4016C28.7856 13.3486 27.2766 18.2817 27.2766 21.4156V24.8977H23.4463V29.5406V32.6165H27.2766C27.2766 41.3218 27.2766 51.8843 27.2766 51.8843H34.9954C34.9954 51.8843 34.9954 41.2638 34.9954 32.6165H40.6829L40.9731 29.5986L41.3793 24.8977H35.4016Z" fill="white"/>
</g>
<defs>
<clipPath id="clip0_1_481">
<rect width="65" height="65" fill="white"/>
</clipPath>
</defs>
</svg>
