<svg width="65" height="65" viewBox="0 0 65 65" fill="none" xmlns="http://www.w3.org/2000/svg">
<g clip-path="url(#clip0_1_485)">
<path d="M65 32.5C65 50.433 50.433 65 32.5 65C14.567 65 0 50.4911 0 32.5C0 14.567 14.567 0 32.5 0C50.4911 0 65 14.567 65 32.5Z" fill="#E62B33"/>
<path d="M46.3126 31.9203C46.0805 31.9203 45.8484 31.9203 45.6162 31.9203C45.6162 31.8623 45.6162 31.8043 45.6162 31.8043C45.6162 31.6301 45.6162 31.456 45.6162 31.34C45.6162 30.4694 45.6162 29.5409 45.6162 28.6703C45.6162 28.5543 45.4421 28.2641 45.3841 28.2641C44.5716 28.206 43.7591 28.2641 42.8885 28.2641C42.8885 29.3087 42.8885 30.3534 42.8885 31.398C42.8885 31.6301 42.8885 31.8043 42.8885 32.0364C41.6117 32.0364 40.451 32.0364 39.1162 32.0364C39.1162 32.3266 39.1162 32.5007 39.1162 32.6748C39.1162 33.3712 39.1742 34.0096 39.2323 34.706C39.8707 34.706 40.5671 34.7641 41.2055 34.7641C41.7859 34.7641 42.3082 34.7641 42.9466 34.7641C42.9466 36.0409 42.9466 37.2596 42.9466 38.4203C43.8751 38.4203 44.7457 38.4203 45.6742 38.4203C45.6742 37.2016 45.6742 35.9828 45.6742 34.706C46.951 34.706 48.1698 34.706 49.3885 34.706C49.3885 34.0096 49.3885 33.3132 49.3885 32.6168C49.3885 32.3846 49.3885 32.1525 49.3885 31.9203C48.3439 31.9203 47.3573 31.9203 46.3126 31.9203Z" fill="white"/>
<path d="M35.7501 31.5717C33.4287 31.6297 31.1073 31.5717 28.7278 31.5717C28.0894 31.5717 27.393 31.5717 26.7546 31.5717C26.6385 31.5717 26.4064 31.7458 26.4064 31.8038C26.4064 33.1386 26.4064 34.4735 26.4064 35.9243C28.3216 35.9243 30.1787 35.9243 32.0939 35.9243C32.0359 36.2145 31.9778 36.3886 31.9198 36.6208C31.0492 39.2324 28.3796 40.5092 25.4778 40.0449C21.8796 39.4645 19.6742 36.1565 20.3126 32.5583C20.4287 32.036 20.5448 31.5717 20.7769 31.1074C21.9376 28.4958 24.8975 26.9288 27.7412 27.5672C28.7859 27.7993 29.6564 28.3217 30.4109 28.9601C31.4555 27.9154 32.4421 26.8708 33.5448 25.8261C33.4867 25.7681 33.3707 25.7101 33.2546 25.652C30.7591 23.5047 27.8573 22.7502 24.6073 23.2726C19.9644 24.027 16.5984 27.6833 15.8439 31.9779C15.4957 33.8351 15.6698 35.7502 16.4242 37.6654C18.2234 42.1922 22.8082 44.9779 27.6832 44.4556C30.0626 44.1654 32.21 43.3529 33.893 41.5538C36.3305 38.9422 36.9689 35.7502 36.6207 32.3261C36.5046 31.6877 36.2725 31.5717 35.7501 31.5717Z" fill="white"/>
</g>
<defs>
<clipPath id="clip0_1_485">
<rect width="65" height="65" fill="white"/>
</clipPath>
</defs>
</svg>
