<svg width="24" height="29" viewBox="0 0 24 29" fill="none" xmlns="http://www.w3.org/2000/svg">
<path d="M2.88403 19.5918L2.63403 19.5908C2.24129 19.5904 1.86284 19.4539 1.56177 19.207L1.43774 19.0947C1.12056 18.7774 0.942098 18.3471 0.94165 17.8984V12.0723C0.942267 11.4543 1.15778 10.8586 1.54614 10.3848L1.7229 10.1895C2.15982 9.75253 2.73256 9.48299 3.34204 9.42188L3.60571 9.4082H21.0862C21.7042 9.40882 22.2998 9.62433 22.7737 10.0127L22.969 10.1895C23.4059 10.6264 23.6755 11.1991 23.7366 11.8086L23.7502 12.0723V17.8984L23.7415 18.0654C23.7083 18.3975 23.578 18.7126 23.3665 18.9707L23.2542 19.0947C22.9369 19.412 22.5065 19.5903 22.0579 19.5908L21.8079 19.5918V26.6396L21.7991 26.8066C21.7603 27.194 21.5894 27.5583 21.3118 27.8359C20.9945 28.1532 20.5642 28.3315 20.1155 28.332H16.2307L16.0637 28.3232C15.7317 28.29 15.4165 28.1598 15.1584 27.9482L15.0344 27.8359C14.7172 27.5187 14.5388 27.0883 14.5383 26.6396V15.2354H15.9807V26.8896H20.3655V18.1484H22.3079V12.0713C22.3077 11.7881 22.2094 11.515 22.0315 11.2979L21.9504 11.208C21.7214 10.979 21.4101 10.8506 21.0862 10.8506H3.60474C3.28103 10.8507 2.97036 10.9791 2.74146 11.208C2.51255 11.4369 2.38416 11.7476 2.38403 12.0713V18.1484H4.32642V26.8896H8.71118V15.2354H10.1536V26.6396L10.1448 26.8066C10.1115 27.1387 9.98133 27.4538 9.76978 27.7119L9.65747 27.8359C9.3402 28.1532 8.90987 28.3315 8.46118 28.332H4.57642L4.40942 28.3232C4.07738 28.29 3.76223 28.1598 3.50415 27.9482L3.38013 27.8359C3.06285 27.5187 2.88455 27.0883 2.88403 26.6396V19.5918Z" stroke="#F41671" stroke-width="0.5"/>
<path d="M5.80981 0.738281C6.42661 0.615598 7.06313 0.654539 7.65747 0.850586L7.90942 0.944336C8.49047 1.18501 8.99778 1.57218 9.38306 2.06543L9.54126 2.2832C9.94065 2.88093 10.1536 3.58385 10.1536 4.30273L10.1487 4.48242C10.1064 5.32076 9.7756 6.11902 9.21216 6.74121L9.08813 6.87207C8.40671 7.5535 7.48248 7.93647 6.5188 7.9375L6.25024 7.92773C5.71521 7.8881 5.19567 7.73006 4.72876 7.46582L4.49927 7.3252C3.97634 6.97579 3.55435 6.4974 3.27271 5.93848L3.1604 5.69336C2.91985 5.11242 2.83504 4.48045 2.91138 3.85938L2.95435 3.59375C3.07706 2.9768 3.35714 2.40384 3.76587 1.92969L3.94849 1.73242C4.45682 1.22409 5.10474 0.878529 5.80981 0.738281ZM6.5188 2.11035C6.1394 2.11035 5.76731 2.20854 5.43872 2.39453L5.30103 2.47949C4.98553 2.6903 4.73067 2.97916 4.56079 3.31641L4.49341 3.46387C4.34824 3.81438 4.29693 4.19558 4.34302 4.57031L4.36841 4.73047C4.44246 5.10274 4.61196 5.44832 4.85864 5.73438L4.96899 5.85254C5.23714 6.12069 5.56921 6.31417 5.93286 6.41504L6.09106 6.45312C6.46303 6.52711 6.84688 6.50296 7.20532 6.38477L7.35767 6.32812C7.70808 6.18298 8.01396 5.94979 8.24634 5.65234L8.34204 5.52051C8.5828 5.16004 8.71118 4.73621 8.71118 4.30273L8.70044 4.08594C8.65739 3.65601 8.48795 3.24827 8.21411 2.91406L8.0686 2.75293C7.70898 2.39331 7.23726 2.17133 6.7356 2.12109L6.5188 2.11035Z" stroke="#F41671" stroke-width="0.5"/>
<path d="M17.4641 0.738281C18.0809 0.615597 18.7174 0.65454 19.3118 0.850586L19.5637 0.944336C20.1448 1.18501 20.6521 1.57218 21.0374 2.06543L21.1956 2.2832C21.5949 2.88094 21.8079 3.58385 21.8079 4.30273L21.803 4.48242C21.7607 5.32076 21.4299 6.11902 20.8665 6.74121L20.7424 6.87207C20.061 7.5535 19.1368 7.93647 18.1731 7.9375L17.9045 7.92773C17.3695 7.8881 16.85 7.73006 16.3831 7.46582L16.1536 7.3252C15.6306 6.97579 15.2086 6.4974 14.927 5.93848L14.8147 5.69336C14.5741 5.11242 14.4893 4.48045 14.5657 3.85938L14.6086 3.59375C14.7314 2.9768 15.0114 2.40384 15.4202 1.92969L15.6028 1.73242C16.0476 1.28763 16.5991 0.96697 17.2024 0.799805L17.4641 0.738281ZM18.1731 2.11035C17.7937 2.11035 17.4216 2.20854 17.093 2.39453L16.9553 2.47949C16.6398 2.6903 16.385 2.97916 16.2151 3.31641L16.1477 3.46387C16.0025 3.81438 15.9512 4.19558 15.9973 4.57031L16.0227 4.73047C16.1073 5.15575 16.3167 5.54593 16.6233 5.85254C16.9299 6.15915 17.3201 6.36853 17.7454 6.45312C18.1173 6.52711 18.5012 6.50296 18.8596 6.38477L19.012 6.32812C19.3624 6.18298 19.6683 5.94979 19.9006 5.65234L19.9963 5.52051C20.2371 5.16004 20.3655 4.73621 20.3655 4.30273L20.3547 4.08594C20.3117 3.65601 20.1423 3.24827 19.8684 2.91406L19.7229 2.75293C19.3633 2.39331 18.8916 2.17133 18.3899 2.12109L18.1731 2.11035Z" stroke="#F41671" stroke-width="0.5"/>
</svg>
