<svg width="25" height="25" viewBox="0 0 25 25" fill="none" xmlns="http://www.w3.org/2000/svg">
<path d="M2.84551 13.288C2.84933 10.6132 2.85443 8.7007 2.86113 7.43096C2.86735 6.25322 2.87474 5.60939 2.88555 5.4333L2.88779 5.4043C2.92392 5.03755 2.9958 4.7667 3.14189 4.47158L3.14248 4.47051L3.14297 4.46953C3.43125 3.89862 3.86413 3.45963 4.42822 3.16758V3.16748C4.73174 3.01 5.00177 2.92807 5.34854 2.88828V2.88838C5.41313 2.88093 5.61069 2.87647 5.92021 2.87246C6.24461 2.86826 6.71659 2.86448 7.35088 2.86113C8.30248 2.85611 9.62082 2.852 11.357 2.84863L13.2344 2.84551L20.5399 2.83584C20.5 1.73467 19.8218 0.796428 18.8602 0.470019L18.8129 0.45459C18.6657 0.408208 18.5983 0.393949 18.1764 0.376367H18.1754L18.1743 0.376269C16.9021 0.314562 10.452 0.288115 6.04619 0.3208L5.19443 0.328125H5.19424C4.25971 0.337067 3.2865 0.353809 2.8541 0.367871L2.70361 0.37373H2.70283C2.42281 0.386816 2.29743 0.393344 2.21055 0.405566C2.13932 0.415587 2.09842 0.428582 1.9832 0.470703L1.98164 0.471191L1.98008 0.471777L1.92969 0.490039C1.68255 0.581698 1.50415 0.682909 1.30605 0.843066L1.30508 0.843945L1.304 0.844726L1.26553 0.875879C0.871446 1.19935 0.607668 1.58057 0.453223 2.04609H0.453125C0.408606 2.18164 0.396554 2.23298 0.37627 2.69189H0.376367L0.37627 2.69268L0.36748 2.91328C0.282659 5.38056 0.282692 15.5263 0.36748 17.9368L0.37627 18.1515V18.1521C0.396686 18.5962 0.411469 18.6728 0.449316 18.792L0.449219 18.7921C0.578413 19.1832 0.726759 19.4319 0.997559 19.7164L0.997656 19.7163C1.47248 20.2133 2.03365 20.4759 2.75879 20.5278L2.82949 20.5321L2.83047 20.5322L2.83564 20.5325L2.84551 13.288Z" stroke="#F41671" stroke-width="6"/>
<path d="M14.5668 24.6971C17.8481 24.6971 19.8174 24.692 21.0364 24.6723C22.1885 24.6536 22.6487 24.6217 22.9056 24.5752L22.9544 24.5656L22.9554 24.5654C23.2367 24.5076 23.6097 24.2898 23.9578 23.9369L23.9593 23.9354C24.322 23.5727 24.5031 23.2563 24.5767 22.9114L24.5899 22.8421C24.6291 22.6093 24.6528 22.3766 24.6671 21.3932C24.6778 20.6564 24.6834 19.5079 24.6882 17.6351L24.6929 15.5092C24.7005 11.7571 24.6992 9.55836 24.6798 8.22656C24.6602 6.88433 24.6219 6.4498 24.5653 6.20215C24.5093 5.95914 24.3323 5.64991 24.0722 5.35605C23.8144 5.06495 23.5015 4.81899 23.2083 4.68613L23.2073 4.68574L23.2064 4.68525C23.0756 4.62486 22.8875 4.57865 22.5595 4.54277L22.4108 4.52812C22.4102 4.52808 22.4061 4.52783 22.397 4.52744C22.3869 4.52701 22.3735 4.52655 22.3565 4.52607C22.3226 4.52511 22.2768 4.52411 22.2194 4.52314C22.1049 4.52122 21.947 4.51938 21.7515 4.51758C21.3605 4.51398 20.8206 4.51064 20.1779 4.50771C18.8927 4.50186 17.1978 4.49751 15.4641 4.49512C11.9943 4.49033 8.37598 4.49356 7.56992 4.50879H7.57002C7.30436 4.51387 7.04731 4.52014 6.84766 4.52646C6.74774 4.52963 6.66297 4.53281 6.59902 4.53574C6.56699 4.53721 6.54109 4.53859 6.52158 4.53984L6.49424 4.54189L6.49287 4.54209L6.46533 4.54619C6.31941 4.57099 6.05426 4.65558 5.85684 4.7499L5.85469 4.75088L5.80752 4.77412C5.56979 4.89677 5.30855 5.115 5.08477 5.37598C4.84465 5.65601 4.67559 5.9527 4.61826 6.18398L4.61807 6.18486L4.61787 6.18564L4.60732 6.22949C4.55581 6.45739 4.52135 6.82636 4.50391 8.0168C4.49007 8.96109 4.48665 10.4062 4.48848 12.6851L4.4918 15.2542V15.2543C4.4969 18.6713 4.50072 20.4615 4.51504 21.4612C4.52758 22.3371 4.54824 22.5917 4.58145 22.7936L4.59648 22.8784L4.59668 22.8796C4.65111 23.1789 4.81035 23.4873 5.10635 23.8165L5.16738 23.8826L5.16787 23.8833C5.51187 24.2487 5.91817 24.4969 6.20879 24.5641L6.20889 24.564C6.44097 24.6159 6.86345 24.6517 8.08516 24.6719C9.2958 24.6919 11.265 24.6971 14.5668 24.6971Z" stroke="#F41671" stroke-width="6"/>
<path d="M11.7819 19.593C12.0204 19.6039 12.1275 19.5899 12.2258 19.5479C12.3366 19.5005 12.4648 19.4055 12.7142 19.1807V19.1806C13.4486 18.5142 18.6033 13.3828 19.7027 12.2197V12.2196C20.1324 11.7648 20.3043 11.5786 20.3854 11.4329C20.4384 11.3374 20.45 11.2679 20.4521 11.0392L20.4524 10.9308C20.4511 10.7742 20.4484 10.6972 20.4424 10.6455C20.4379 10.6068 20.4318 10.5838 20.4147 10.5387C20.3539 10.388 20.2085 10.1908 20.0134 10.0076C19.8305 9.83596 19.6334 9.70428 19.4742 9.6418L19.4429 9.63018L19.4422 9.62998C19.2584 9.56604 18.954 9.54773 18.7724 9.59023L18.7685 9.59121L18.7645 9.59199L18.7452 9.59648C18.7245 9.6019 18.6997 9.60988 18.6751 9.61934C18.6593 9.62539 18.6459 9.6312 18.636 9.63594C18.6316 9.63807 18.6287 9.63966 18.6271 9.64053C18.4949 9.73372 18.2247 9.97327 17.6218 10.5565C17.1688 10.9947 16.537 11.6178 15.6482 12.5015L14.671 13.4748L14.6708 13.475L12.0765 16.0592L11.8685 16.2663L11.6568 16.063L11.1364 15.563L11.1359 15.5624C10.7572 15.1967 10.5631 15.0193 10.4161 14.921C10.3092 14.8496 10.2317 14.8221 10.0896 14.7989L10.0246 14.7892C9.67194 14.7402 9.34948 14.8452 8.99746 15.18L8.96328 15.2131C8.72898 15.4464 8.59036 15.656 8.52109 15.8523C8.4535 16.044 8.44563 16.2409 8.50244 16.464L8.50234 16.4641C8.53108 16.5741 8.55649 16.6443 8.58799 16.7064C8.61191 16.7536 8.64263 16.8026 8.68916 16.8646L8.74131 16.9314C8.8922 17.1189 9.39886 17.6459 9.93584 18.1822C10.4389 18.6847 10.9399 19.1668 11.1669 19.3591L11.2086 19.3937L11.2093 19.3942C11.3068 19.4733 11.3779 19.5142 11.4513 19.5402C11.5274 19.5672 11.624 19.5847 11.7819 19.593Z" stroke="#F41671" stroke-width="6"/>
</svg>
