<svg width="49" height="49" viewBox="0 0 49 49" fill="none" xmlns="http://www.w3.org/2000/svg">
<circle cx="24.5" cy="24.5" r="24.5" fill="#1C1C1C"/>
<path d="M32.9479 26.1608C32.9479 25.8291 33.0585 25.4975 33.0585 25.0553C33.0585 24.613 33.0585 24.2814 32.9479 23.9497L35.2695 22.0703C35.4906 21.8492 35.4906 21.6281 35.3801 21.407L33.169 17.5377C33.0585 17.4271 32.8374 17.3166 32.5057 17.4271L29.7419 18.5327C29.1891 18.0904 28.5258 17.7588 27.8625 17.4271L27.4203 14.5528C27.5308 14.2211 27.1991 14 26.9781 14H22.556C22.3348 14 22.0032 14.2211 22.0032 14.4422L21.561 17.4271C20.8977 17.6482 20.3449 18.0904 19.6816 18.5327L17.0283 17.4271C16.6967 17.3166 16.4756 17.4271 16.2544 17.6482L14.0434 21.5176C13.9328 21.6281 14.0434 21.9598 14.2645 22.1809L16.5861 23.9497C16.5861 24.2814 16.4755 24.613 16.4755 25.0553C16.4755 25.4975 16.4755 25.8291 16.5861 26.1608L14.2645 28.0402C14.0434 28.2613 14.0434 28.4824 14.1539 28.7035L16.365 32.5729C16.4755 32.6834 16.6966 32.794 17.0283 32.6834L19.7921 31.5779C20.3449 32.0201 21.0082 32.3518 21.6715 32.6834L22.1137 35.5578C22.1137 35.7789 22.3348 36 22.6665 36H27.0886C27.3097 36 27.6413 35.7789 27.6413 35.5578L28.0835 32.6834C28.7469 32.3518 29.4102 32.0201 29.9629 31.5779L32.7268 32.6834C32.9479 32.794 33.2795 32.6834 33.3901 32.4623L35.6012 28.5929C35.7117 28.3718 35.7117 28.0402 35.4906 27.9296L32.9479 26.1608ZM24.767 28.9246C22.6665 28.9246 20.8977 27.1558 20.8977 25.0553C20.8977 22.9548 22.6665 21.1859 24.767 21.1859C26.8675 21.1859 28.6364 22.9548 28.6364 25.0553C28.6364 27.1558 26.8675 28.9246 24.767 28.9246Z" fill="#F41671"/>
</svg>
