<svg width="25" height="25" viewBox="0 0 25 25" fill="none" xmlns="http://www.w3.org/2000/svg">
<path d="M0 25H25V0H0V25ZM14.5125 17.2211C14.5125 17.9567 13.9172 18.552 13.1816 18.552H11.8039C11.0844 18.552 10.4891 17.9567 10.4891 17.2372V13.8543C10.4891 13.4784 10.786 13.1816 11.1618 13.1816C11.5377 13.1816 11.8345 13.4784 11.8345 13.8543V17.2049H13.1816V10.4891H7.12235C6.74647 10.4891 6.44964 10.1923 6.44964 9.81642C6.44964 9.44054 6.74647 9.14371 7.12235 9.14371H13.1655C13.9011 9.14371 14.5125 9.73898 14.5125 10.4907V17.2211ZM17.8777 9.17436C17.5018 9.17436 17.2049 8.87753 17.2049 8.50165V7.8128H7.12235C6.74647 7.8128 6.44964 7.51597 6.44964 7.14009C6.44964 6.76421 6.74647 6.46738 7.12235 6.46738L17.1888 6.45125C17.9244 6.45125 18.5358 7.04653 18.5358 7.79828V8.48713C18.5504 8.87591 18.2374 9.17436 17.8777 9.17436Z" fill="white"/>
</svg>
