<svg width="25" height="25" viewBox="0 0 25 25" fill="none" xmlns="http://www.w3.org/2000/svg">
<g clip-path="url(#clip0_1_6603)">
<path d="M12.4998 8.16211C13.1678 8.16211 13.7126 8.70692 13.7126 9.375V10.5879H11.2869V9.375C11.2869 8.70693 11.8317 8.16212 12.4998 8.16211Z" stroke="#F41671" stroke-width="0.7"/>
<path d="M21.1146 0.618164C21.4343 0.361901 21.8556 0.285367 22.2377 0.405273L22.3988 0.46875L22.3998 0.469727C22.82 0.670883 23.0872 1.09599 23.0873 1.5625V14.0625C23.0873 18.5927 19.5705 22.4623 13.4398 24.4189L12.8392 24.6016C12.7283 24.6336 12.6146 24.6504 12.5004 24.6504C12.3858 24.6504 12.2716 24.6336 12.1605 24.6016H12.1595C5.65943 22.7103 1.9115 18.7375 1.9115 14.0625L1.91248 1.5625L1.92517 1.38965C1.97422 1.04961 2.16592 0.745476 2.45154 0.554688L2.60193 0.46875C2.96781 0.292605 3.39683 0.314715 3.74255 0.519531L3.88513 0.618164C4.93579 1.46352 6.38599 1.87206 7.81189 1.87207C9.14839 1.872 10.5062 1.51317 11.5375 0.771484L11.7396 0.618164C12.1564 0.283656 12.7383 0.26226 13.1752 0.555664L13.2601 0.618164C14.3111 1.46347 15.7611 1.87207 17.1869 1.87207C18.5233 1.87199 19.8809 1.51319 20.9125 0.771484L21.1146 0.618164ZM12.5004 5.89941C10.5835 5.89941 9.02478 7.45904 9.02478 9.375V10.6201C8.13583 10.7847 7.46228 11.5635 7.46228 12.5V15.625C7.46233 16.6816 8.31915 17.5371 9.37537 17.5371H15.6254C16.6815 17.537 17.5374 16.6815 17.5375 15.625V12.5C17.5375 11.5634 16.8641 10.7846 15.975 10.6201V9.375C15.975 7.45914 14.4171 5.89958 12.5004 5.89941Z" stroke="#F41671" stroke-width="0.7"/>
<path d="M12.4998 13.6309C12.7379 13.6309 12.9314 13.8244 12.9314 14.0625C12.9314 14.3009 12.738 14.4941 12.4998 14.4941C12.2615 14.4941 12.0681 14.3009 12.0681 14.0625C12.0681 13.8244 12.2616 13.6309 12.4998 13.6309Z" stroke="#F41671" stroke-width="0.7"/>
</g>
<defs>
<clipPath id="clip0_1_6603">
<rect width="25" height="25" fill="white"/>
</clipPath>
</defs>
</svg>
