<svg width="20" height="20" viewBox="0 0 20 20" fill="none" xmlns="http://www.w3.org/2000/svg">
<path d="M0 20H20V0H0V20ZM11.61 13.7769C11.61 14.3654 11.1338 14.8416 10.5453 14.8416H9.44312C8.86752 14.8416 8.3913 14.3654 8.3913 13.7898V11.0834C8.3913 10.7827 8.62877 10.5453 8.92947 10.5453C9.23017 10.5453 9.46764 10.7827 9.46764 11.0834V13.764H10.5453V8.3913H5.69788C5.39717 8.3913 5.15971 8.15384 5.15971 7.85313C5.15971 7.55243 5.39717 7.31496 5.69788 7.31496H10.5324C11.1209 7.31496 11.61 7.79118 11.61 8.39259V13.7769ZM14.3021 7.33948C14.0014 7.33948 13.764 7.10202 13.764 6.80132V6.25024H5.69788C5.39717 6.25024 5.15971 6.01278 5.15971 5.71207C5.15971 5.41137 5.39717 5.1739 5.69788 5.1739L13.751 5.161C14.3395 5.161 14.8287 5.63722 14.8287 6.23863V6.7897C14.8403 7.10073 14.5899 7.33948 14.3021 7.33948Z" fill="#BDBDBD"/>
</svg>
